<?xml version="1.0" encoding="utf-8"?>
<!-- Generator: Adobe Illustrator 27.5.0, SVG Export Plug-In . SVG Version: 6.00 Build 0)  -->
<svg version="1.1" id="Layer_1" xmlns="http://www.w3.org/2000/svg" xmlns:xlink="http://www.w3.org/1999/xlink" x="0px" y="0px"
	 viewBox="0 0 512 512" style="enable-background:new 0 0 512 512;" xml:space="preserve">
<style type="text/css">
	.st0{fill:#444444;}
</style>
<path class="st0" d="M152.1,38.2c9.9,8.9,10.7,24,1.8,33.9l-72,80c-4.4,4.9-10.6,7.8-17.2,7.9s-12.9-2.4-17.6-7L7,113
	c-9.3-9.4-9.3-24.6,0-34s24.6-9.4,33.9,0L63,101.1l55.1-61.2c8.9-9.9,24-10.7,33.9-1.8L152.1,38.2z M152.1,198.2
	c9.9,8.9,10.7,24,1.8,33.9l-72,80c-4.4,4.9-10.6,7.8-17.2,7.9s-12.9-2.4-17.6-7L7,273c-9.4-9.4-9.4-24.6,0-33.9s24.6-9.4,33.9,0
	L63,261.2l55.1-61.2c8.9-9.9,24-10.7,33.9-1.8L152.1,198.2z M224,96c0-17.7,14.3-32,32-32h224c17.7,0,32,14.3,32,32s-14.3,32-32,32
	H256C238.3,128,224,113.7,224,96z M224,256c0-17.7,14.3-32,32-32h224c17.7,0,32,14.3,32,32s-14.3,32-32,32H256
	C238.3,288,224,273.7,224,256z M160,416c0-17.7,14.3-32,32-32h288c17.7,0,32,14.3,32,32s-14.3,32-32,32H192
	C174.3,448,160,433.7,160,416z M48,368c26.5,0,48,21.5,48,48s-21.5,48-48,48S0,442.5,0,416S21.5,368,48,368z"/>
</svg>
